<?xml version="1.0" encoding="utf-8"?>
<!-- Generator: Adobe Illustrator 22.1.0, SVG Export Plug-In . SVG Version: 6.00 Build 0)  -->
<svg version="1.1" id="Layer_1" xmlns="http://www.w3.org/2000/svg" xmlns:xlink="http://www.w3.org/1999/xlink" x="0px" y="0px"
	 viewBox="0 0 177.9 55.8" style="enable-background:new 0 0 177.9 55.8;" xml:space="preserve">
<style type="text/css">
	.st0{fill:#00594E;}
	.st1{fill:#769D91;}
</style>
<g id="Artwork_1_1_">
	<g>
		<g>
			<path class="st0" d="M174.3,40.4h-0.6v1.4h0.6c0.6,0,1-0.1,1-0.7C175.2,40.5,174.9,40.4,174.3,40.4 M175.3,43.7l-1-1.5h-0.6v1.5
				h-0.5v-3.6h1.2c0.8,0,1.3,0.3,1.3,1c0,0.4-0.2,0.9-0.9,1.1l1.1,1.5H175.3z M174.4,38.8c-1.7,0-3.1,1.4-3.1,3.2s1.4,3.1,3.1,3.1
				c1.7,0,3.1-1.4,3.1-3.1S176.2,38.8,174.4,38.8 M174.4,45.5c-1.9,0-3.5-1.6-3.5-3.5c0-1.9,1.6-3.5,3.5-3.5c1.9,0,3.5,1.6,3.5,3.5
				C177.9,43.9,176.4,45.5,174.4,45.5"/>
			<path class="st1" d="M16.6,22.3c-4.2,0-6.7,2.2-7.8,3.7c0.2,0.3,1.7,1.4,2.2,1.7c1.3-1.3,2.7-3.1,5.5-3.1
				c5.3,0,10.2,5.9,15.7,5.9c1.8,0,2.8-0.5,3.6-0.8c-0.9,1.4-4.2,4.8-10.3,4.8C13.1,34.6,3.5,25.2,1.8,19l-0.6,0.2L0,22.3
				c2.8,6.1,12.4,14.3,24.2,14.3c7.4,0,12.1-4.5,12.8-8.1c0,0-1,0.7-3.9,0.7C27.3,29.2,22.8,22.3,16.6,22.3"/>
		</g>
		<polygon class="st0" points="18.3,49.4 17,54.6 16.9,54.6 15.6,49.4 14.2,49.4 13.5,55.7 14.3,55.7 14.9,50.2 16.3,55.7 
			17.5,55.7 18.9,50.2 19.5,55.7 20.4,55.7 19.7,49.4 		"/>
		<polygon class="st0" points="25.9,49.4 25.9,55.7 29.8,55.7 29.8,54.9 26.8,54.9 26.8,52.8 29.1,52.8 29.1,52.1 26.8,52.1 
			26.8,50.2 29.8,50.2 29.8,49.4 		"/>
		<g>
			<path class="st0" d="M36.7,54.9h-1v-4.8h1c1.2,0,2.3,0.3,2.3,2.4C38.9,54.7,37.9,54.9,36.7,54.9 M37,49.4h-2.2v6.3h2.2
				c1.7,0,3-0.8,3-3.1C39.9,50.1,38.6,49.4,37,49.4"/>
		</g>
		<rect x="44.8" y="49.4" class="st0" width="0.9" height="6.3"/>
		<g>
			<path class="st0" d="M50.7,52.4c0,2,1.3,3.2,3.2,3.2c0.5,0,0.9,0,1.4-0.1v-0.7c-0.5,0.1-0.8,0.1-1.3,0.1c-1.6,0-2.4-1-2.4-2.5
				c0-1.5,0.8-2.5,2.4-2.5c0.6,0,0.8,0.1,1.3,0.1v-0.8c-0.5-0.1-0.9-0.1-1.4-0.1C51.9,49.2,50.7,50.4,50.7,52.4"/>
		</g>
		<path class="st0" d="M62.6,50.2L62.6,50.2l1.2,3.1h-2.3L62.6,50.2z M62,49.4l-2.4,6.3h1l0.6-1.6h2.9l0.6,1.6h1l-2.3-6.3H62z"/>
		<polygon class="st0" points="70.5,49.4 70.5,55.7 74.4,55.7 74.4,54.9 71.5,54.9 71.5,49.4 		"/>
		<g>
			<path class="st0" d="M99.3,52.6h-1v-2.5h1c0.8,0,1.4,0.2,1.4,1.2C100.7,52.4,100,52.6,99.3,52.6 M99.3,49.4h-2v6.3h0.9v-2.3h1
				c1.8,0,2.3-1,2.3-2C101.7,50.3,101.2,49.4,99.3,49.4"/>
			<path class="st0" d="M108.1,52.5h-0.8v-2.3h1c0.8,0,1.4,0.2,1.4,1.1C109.6,52.2,109,52.5,108.1,52.5 M109.3,53
				c0.9-0.3,1.3-1,1.3-1.7c0-1.3-0.8-1.9-2.2-1.9h-2.1v6.3h0.9v-2.5h1.1l1.6,2.5h1.1L109.3,53L109.3,53z"/>
			<path class="st0" d="M118.7,55.1c-1,0-2-0.6-2-2.5c0-1.9,0.9-2.5,2-2.5s2,0.7,2,2.5C120.6,54.4,119.7,55.1,118.7,55.1
				 M118.7,49.3c-1.9,0-2.9,1.2-2.9,3.3c0,2,1.1,3.3,2.9,3.3c1.9,0,2.9-1.2,2.9-3.3C121.6,50.5,120.5,49.3,118.7,49.3"/>
			<path class="st0" d="M129.1,54.9h-1v-4.8h1c1.2,0,2.3,0.3,2.3,2.4C131.4,54.7,130.3,54.9,129.1,54.9 M129.4,49.4h-2.2v6.3h2.2
				c1.7,0,3-0.8,3-3.1C132.4,50.1,131.1,49.4,129.4,49.4"/>
			<path class="st0" d="M141.6,53.6c0,1.1-0.7,1.4-1.5,1.4c-0.8,0-1.5-0.3-1.5-1.4v-4.2h-0.9v4.2c0,1.1,0.5,2.1,2.4,2.1
				c1.7,0,2.4-0.8,2.4-2.1v-4.2h-0.9V53.6z"/>
			<path class="st0" d="M147.3,52.5c0,2,1.3,3.2,3.2,3.2c0.5,0,0.9,0,1.4-0.1v-0.7c-0.5,0.1-0.8,0.1-1.3,0.1c-1.6,0-2.4-1-2.4-2.5
				c0-1.5,0.8-2.5,2.4-2.5c0.6,0,0.8,0.1,1.3,0.1v-0.8c-0.5-0.1-0.9-0.1-1.4-0.1C148.6,49.3,147.3,50.5,147.3,52.5"/>
		</g>
		<polygon class="st0" points="155.6,49.4 155.6,50.2 157.5,50.2 157.5,55.7 158.5,55.7 158.5,50.2 160.4,50.2 160.4,49.4 		"/>
		<g>
			<path class="st0" d="M165.9,55.8c-0.8,0-1.3-0.1-1.7-0.2v-0.8c0.5,0.1,1.1,0.2,1.7,0.2c0.8,0,1.7-0.3,1.7-1.1
				c0-0.6-0.5-0.8-1-0.9c-1.1-0.3-2.4-0.5-2.4-2c0-1.2,1-1.7,2.3-1.7c0.6,0,1.1,0.1,1.5,0.2v0.8c-0.5-0.1-1-0.2-1.4-0.2
				c-0.6,0-1.5,0.2-1.5,0.9c0,0.6,0.5,0.8,1,1c1,0.3,2.4,0.4,2.4,1.8C168.5,54.6,168.1,55.8,165.9,55.8"/>
			<path class="st0" d="M94.6,41.1c-2.1,0-3.9-1.4-4.6-2.2V22.4c1.3-1.5,3.3-2.3,4.6-2.3c4.4,0,7.3,4.2,7.3,10.5
				C101.9,37.9,98.2,41.1,94.6,41.1 M96.4,15.1c-2.9,0-5.1,1.2-6.4,2.1v-2.1h-8.7v40.6H90V44.1c1.2,0.9,3.4,1.8,6.4,1.8
				c8.8,0,14.3-5.7,14.3-15.3C110.6,22.8,106.2,15.1,96.4,15.1"/>
			<path class="st0" d="M122.1,26.6c0-4.3,2-6.6,4.7-6.6c3,0,4.7,2.4,4.7,6.6H122.1z M126.5,15.1c-8.5,0-13.2,6.3-13.2,15.4
				c0,9.2,5.8,15.4,14.4,15.4c6.7,0,10.2-4.1,10.9-5l-2.3-2.6c-1.3,1.4-3.6,2.7-6.6,2.7c-6,0-7.7-6.4-7.7-10.5h17.7
				C139.7,20.1,134.2,15.1,126.5,15.1"/>
			<path class="st0" d="M158,15.1c-3.9,0-6.6,2-7.5,2.9v-2.5h-8.2v30h8.6V22.9c0.7-0.8,2.5-2.5,4.6-2.5c2.7,0,4.3,1.6,4.3,5v20.1
				h8.6V25.3C168.3,19.2,164.6,15.1,158,15.1"/>
			<path class="st0" d="M22.6,36.5l-3.2,8.9h-6l3.8-9.8C19,36.1,20.8,36.4,22.6,36.5"/>
			<path class="st0" d="M54.2,45.5H43.3l-12-33.8l-5.2,14.8c-1.4-0.9-2.8-1.9-4.2-2.6l8.8-22.6L37,0L54.2,45.5z"/>
			<path class="st0" d="M71.3,27.5c3.8,1.8,7.3,4.2,7.3,9.1c0,5.4-5,9.2-12.9,9.2c-4.8,0-8.8-1.4-10.5-2.3l1.2-5.5
				c0.7,0.4,5,3.3,9.2,3.3c3,0,4.8-1.1,4.8-3c0-1.5-1.6-2.5-3.7-3.5c-1.3-0.6-2.8-1.2-4.3-1.8c-3.7-1.6-7.2-3.8-7.2-8.9
				c0-5.6,4.6-9.1,11.9-9.1c5.9,0,9.8,2,10.3,2.2l-1.7,5.3c-1.3-0.8-4.7-2.8-8.6-2.8c-2.5,0-3.9,1-3.9,2.6c0,1.7,1.9,2.6,3.6,3.3
				C68.1,26.2,69.7,26.8,71.3,27.5"/>
		</g>
	</g>
</g>
</svg>
