<?xml version="1.0" encoding="utf-8"?>
<!-- Generator: Adobe Illustrator 22.1.0, SVG Export Plug-In . SVG Version: 6.00 Build 0)  -->
<svg version="1.1" id="Layer_1" xmlns="http://www.w3.org/2000/svg" xmlns:xlink="http://www.w3.org/1999/xlink" x="0px" y="0px"
	 viewBox="0 0 66.5 55.8" style="enable-background:new 0 0 66.5 55.8;" xml:space="preserve">
<style type="text/css">
	.st0{fill:#769D91;}
	.st1{fill:#00594E;}
</style>
<g id="Artwork_1_1_">
	<g>
		<g>
			<path class="st0" d="M20.4,27.3c-5.2,0-8.2,2.7-9.6,4.5c0.2,0.4,2.1,1.7,2.7,2.1c1.6-1.6,3.3-3.8,6.7-3.8
				c6.5,0,12.5,7.2,19.3,7.2c2.2,0,3.4-0.6,4.4-1c-1.1,1.7-5.2,5.9-12.6,5.9c-15.2,0.1-27-11.4-29.1-19l-0.7,0.2L0,27.3
				c3.4,7.5,15.2,17.5,29.7,17.5c9.1,0,14.8-5.5,15.7-9.9c0,0-1.2,0.9-4.8,0.9C33.5,35.8,28,27.3,20.4,27.3"/>
		</g>
		<g>
			<path class="st1" d="M27.7,44.8l-3.9,10.9h-7.4l4.7-12C23.3,44.3,25.5,44.6,27.7,44.8"/>
			<path class="st1" d="M66.5,55.8H53.1L38.4,14.3L32,32.5c-1.7-1.1-3.4-2.3-5.2-3.2L37.6,1.6L45.4,0L66.5,55.8z"/>
		</g>
	</g>
</g>
</svg>
